<svg xmlns="http://www.w3.org/2000/svg" version="1.1" xmlns:xlink="http://www.w3.org/1999/xlink" xmlns:svgjs="http://svgjs.dev/svgjs" viewBox="0 0 800 800" opacity="1"><defs><linearGradient x1="50%" y1="0%" x2="50%" y2="100%" id="uundulate-grad"><stop stop-color="hsl(298, 100%, 50%)" stop-opacity="1" offset="45%"></stop><stop stop-color="hsl(191, 100%, 50%)" stop-opacity="1" offset="100%"></stop></linearGradient></defs><g stroke-width="5" stroke="url(#uundulate-grad)" fill="none"><path d="M1534.7441791879305 -391.3040005955454C1848.0535531814508 405.5467082247642 2464.5663163594745 1335.2614271603388 2289.1761482156144 1959.8219039988307C2113.7859800717533 2584.3823808373236 1187.88196014921 2775.584641935544 692.8713720973988 2606.5862882292176C197.86078404558793 2437.5879345228923 374.13279128438853 1624.1535002443989 -86.87467443307742 1148.6298062084643C-547.8821401505438 673.1061121725297 -1526.8072659178542 655.1553906191789 -1519.9644633464352 324.07255685672953C-1513.1216607750162 -7.01027690572073 -534.2908088388403 15.501798981076263 -54.02922209026519 -440.56779585129357C426.23236465830996 -896.6373906836632 454.2966944471 -1875.3247890169305 785.2911530467245 -1865.0614983386502C1116.2856116463486 -1854.7982076603698 1221.4348051944116 -1188.1547094158545 1534.7441791879305 -391.3040005955454C1848.0535531814508 405.5467082247642 2464.5663163594745 1335.2614271603388 2289.1761482156144 1959.8219039988307 "></path><path d="M1511.1038083334702 -374.818522199756C1817.8859037021248 405.43113018679696 2421.554650980607 1315.77679247788 2249.8184446730766 1927.325592715571C2078.082238365547 2538.874392953261 1171.4678855247225 2726.093273611935 686.7700180573243 2560.615718941158C202.07215058992597 2395.138164270381 374.6718243445853 1598.6502807060224 -76.73131917043361 1133.0333302958365C-528.1344626854527 667.4163798856507 -1486.6653149992774 649.8396316979947 -1479.965070814763 325.65435697226303C-1473.2648266302485 1.4690822465308884 -514.8262841094097 23.512156552352735 -44.57014708476322 -423.05598838767605C425.68598993988326 -869.6241333277048 453.1656461914067 -1827.9222108623621 777.2643869035387 -1817.8727387398794C1101.3631276156711 -1807.8232666173967 1204.3217129648156 -1155.068174586309 1511.1038083334702 -374.818522199756C1817.8859037021248 405.43113018679696 2421.554650980607 1315.77679247788 2249.8184446730766 1927.325592715571 "></path><path d="M1487.4629491977598 -358.3331658742791C1787.7177659415493 405.31543007851724 2378.54249732049 1296.2920357251096 2210.4602528492896 1894.8291593619979C2042.3780083780898 2493.366282998886 1155.0533226189855 2676.601783218014 680.6681757360002 2514.6450275827856C206.28302885301446 2352.688271947556 375.210369123532 1573.1469390973339 -66.5884521890398 1117.4367323128963C-508.3872735016116 661.7265255284592 -1446.5238523619507 644.523750706498 -1439.966166564341 327.2360350174836C-1433.408480766731 9.948319328469552 -495.36224766122905 31.522392053316253 -35.11156036051125 -405.54430299437126C425.13912694020655 -842.6109980420588 452.03410965446346 -1780.5197547781065 769.2371324791034 -1770.6841012114212C1086.4401553037437 -1760.8484476447359 1187.2081324539704 -1121.9817618270754 1487.4629491977598 -358.3331658742791C1787.7177659415493 405.31543007851724 2378.54249732049 1296.2920357251096 2210.4602528492896 1894.8291593619979 "></path><path d="M1463.822578343299 -341.84768747848943C1757.5501164622242 405.19985204055047 2335.5308319416217 1276.8074010426517 2171.1025493067523 1862.3328480787382C2006.6742666718833 2447.8582951148246 1138.6392479944984 2627.110414894407 674.5668216959252 2468.674458294726C210.49439539735272 2310.2385016950457 375.7494021837283 1547.6437195589579 -56.44509692639576 1101.8402564002695C-488.6395960365205 656.0367932415811 -1406.381901443374 639.2079917853143 -1399.9667740326686 328.817835133018C-1393.5516466219633 18.427678480720715 -475.8977229317986 39.532749624592725 -25.652485355009276 -388.0324955307535C424.59275222177985 -815.5977406861002 450.90306139877066 -1733.1171766235384 761.210366335918 -1723.4953416126505C1071.5176712730658 -1713.8735066017628 1170.0950402243748 -1088.8952269975296 1463.822578343299 -341.84768747848943C1757.5501164622242 405.19985204055047 2335.5308319416217 1276.8074010426517 2171.1025493067523 1862.3328480787382 "></path><path d="M1440.1820854185262 -325.3622090827005C1727.3823449125857 405.08427400258324 2292.519044492442 1257.3227663601933 2131.744723693903 1829.8365367954784C1970.9704028953633 2402.350307230763 1122.2250512996989 2577.6190465707978 668.4653455855387 2422.703889006666C214.7056398713787 2267.7887314425334 376.28831317361255 1522.1405000205818 -46.30186373406468 1086.2437804876417C-468.8920406417419 650.3470609547016 -1366.2400725951097 633.8922328641302 -1359.967503571309 330.399635248551C-1353.6949345475082 26.907037632972333 -456.4333202726805 47.5431071958692 -16.193532419819803 -370.52068806713623C424.04625543304064 -788.5844833301417 449.77189107276445 -1685.71459846897 753.1834781224202 -1676.3065820138797C1056.595065172076 -1666.8985655587894 1152.981825924467 -1055.8086921679837 1440.1820854185262 -325.3622090827005C1727.3823449125857 405.08427400258324 2292.519044492442 1257.3227663601933 2131.744723693903 1829.8365367954784 "></path><path d="M1416.5413483531288 -308.87660861659856C1697.2143292223232 404.9688180349285 2249.5070129026367 1237.8382537480475 2092.386653940428 1797.3403475825303C1935.2662949782193 2356.842441417013 1105.8106104642739 2528.127800317502 662.3636253345267 2376.733441788918C218.91664020477947 2225.3390832603345 376.826980022872 1496.6374025525179 -36.15887468235837 1070.6474266453265C-449.14472938758854 644.6574507381356 -1326.0984878874706 628.576596013259 -1319.9684772505743 331.9815574343975C-1313.8384666136783 35.386518855535996 -436.9691617541873 55.55358683745817 -6.734823625255331 -353.0087585332062C423.49951450367644 -761.5711039038708 448.64047660613414 -1638.3118982440894 745.1563457682978 -1629.1177003447965C1041.672214930461 -1619.9235024455038 1135.868367483934 -1022.7220352681256 1416.5413483531288 -308.87660861659856C1697.2143292223232 404.9688180349285 2249.5070129026367 1237.8382537480475 2092.386653940428 1797.3403475825303 "></path><path d="M1392.90109956898 -292.39113022080915C1667.0468018133097 404.8532399969613 2206.495469594082 1218.353619065589 2053.029072468203 1764.84403629927C1899.5626753423248 2311.3344535329516 1089.3966579100993 2478.636431993894 656.2623933647646 2330.762872500858C223.12812881943046 2182.889313007823 377.36613515338104 1471.1341830141423 -26.015397349401837 1055.0509507326992C-429.39692985218494 638.9677184512566 -1285.9564148985814 623.2608370920748 -1279.9689626485897 333.5633575499314C-1273.9815103985982 43.865878007787614 -417.5045149544444 63.56394440873464 2.724373450559142 -335.4969510695887C422.95326185556246 -734.5578465479123 447.5095504207534 -1590.9093200895213 737.129701695425 -1581.928940746026C1026.749852970096 -1572.9485614025307 1118.7553973246509 -989.6355004385797 1392.90109956898 -292.39113022080915C1667.0468018133097 404.8532399969613 2206.495469594082 1218.353619065589 2053.029072468203 1764.84403629927 "></path><path d="M1369.2606066442077 -275.90552975470723C1636.8790302636721 404.737784029307 2163.483682144901 1198.8691064534437 2013.6712468553537 1732.3478470863224C1863.8588115658058 2265.8265877192025 1072.9824612152997 2429.145185740598 650.1609172543781 2284.7924252831117C227.33937329345622 2140.4396648256247 377.9050461432653 1445.6310855460783 -15.872164157070529 1039.4545968903844C-409.64937445740634 633.2781082346905 -1245.8145860503173 617.9452002412031 -1239.96969218723 335.14527973577697C-1234.124798324143 52.34535923035128 -398.04011229532625 71.57442405032384 12.183326385748614 -317.9850215356587C422.406765066823 -707.5444671216412 446.37838009474785 -1543.5066198646405 729.1028134819271 -1534.7400590769428C1011.8272468691061 -1525.9734982892448 1101.6421830247432 -956.5488435387214 1369.2606066442077 -275.90552975470723C1636.8790302636721 404.737784029307 2163.483682144901 1198.8691064534437 2013.6712468553537 1732.3478470863224 "></path><path d="M1345.6202357897473 -259.42005135891804C1606.7113807843466 404.6222059913398 2120.472016766034 1179.3844717709853 1974.3135433128164 1699.8515358030622C1828.1550698595988 2220.3185998351396 1056.5683865908127 2379.653817416989 644.059563214304 2238.821855995051C231.55073983779425 2097.9898945731134 378.444079203462 1420.1278660077019 -5.72880889442672 1023.8581209777567C-389.901696992315 627.5883759478111 -1205.6726351317404 612.6294413200189 -1199.970299655558 336.7270798513109C-1194.2679641793754 60.82471838260267 -378.5755875658956 79.58478162160009 21.64240139125036 -300.4732140720414C421.86039034839655 -680.5312097656829 445.2473318390548 -1496.1040417100721 721.0760473387418 -1487.551299478172C996.9047628384283 -1478.9985572462717 1084.529090795147 -923.4623087091757 1345.6202357897473 -259.42005135891804C1606.7113807843466 404.6222059913398 2120.472016766034 1179.3844717709853 1974.3135433128164 1699.8515358030622 "></path><path d="M1321.979498724349 -242.93457296312863C1576.543365094084 404.5066279533726 2077.4599851762287 1159.899837088527 1934.9554735593415 1667.355224519802C1792.4509619424548 2174.8106119510776 1040.1539457553881 2330.162449093381 637.9578429632916 2192.8512867069912C235.76174017119524 2055.5401243206015 378.98274605272127 1394.6246464693259 4.414180157279816 1008.261645065129C-370.15438573816164 621.8986436609321 -1165.5310504241013 607.3136823988348 -1159.9712733348233 338.3088799668444C-1154.4114962455453 69.30407753485383 -359.11142904740245 87.59513919287633 31.101110185814832 -282.9614066084241C421.31364941903234 -653.5179524097243 444.11591737242384 -1448.701463555504 713.0489149846189 -1440.3625398794013C981.9819125968133 -1432.0236162032984 1067.4156323546144 -890.3757738796298 1321.979498724349 -242.93457296312863C1576.543365094084 404.5066279533726 2077.4599851762287 1159.899837088527 1934.9554735593415 1667.355224519802 "></path><path d="M1298.3393720105137 -226.44921663765172C1546.375959755383 404.3909278450933 2034.4485639379864 1140.415080335756 1895.5980141574291 1634.8587911662298C1756.7474643768728 2129.302501996703 1023.7401152715261 2280.6709586994607 631.8567330638425 2146.8805953486194C239.9733508561585 2013.0902319977777 379.5220232535428 1369.1213048606373 14.557779560548624 992.6650470821892C-350.4064641324453 616.208789303741 -1125.3888553648994 601.9978014073386 -1119.9716366625262 339.8905580120654C-1114.5544179601527 77.78331461679295 -339.6466601773468 95.60537469384053 40.560429331941805 -265.44972121511887C420.7675188412304 -626.5048171240783 442.9851132573558 -1401.2990074712484 705.0223929820586 -1393.173902350943C967.0596727067609 -1385.0487972306378 1050.3027842656438 -857.2893611203966 1298.3393720105137 -226.44921663765172C1546.375959755383 404.3909278450933 2034.4485639379864 1140.415080335756 1895.5980141574291 1634.8587911662298 "></path><path d="M1274.6986349451154 -209.9637382418623C1516.2079440651205 404.2753498071261 1991.4365323481807 1120.9304456532986 1856.2399444039543 1602.3624798829696C1721.0433564597288 2083.794514112641 1007.3256744361015 2231.1795903758525 625.7550128128305 2100.910026060559C244.1843511895595 1970.6404617452663 380.0606901028018 1343.6180853222613 24.700768612254933 977.0685711695619C-330.65915287829193 610.5190570168625 -1085.2472706572603 596.6820424861544 -1079.9726103417916 341.47235812759936C-1074.6979500263228 86.26267376904411 -320.1825016588539 103.61573226511678 50.01913812650628 -247.93791375150158C420.22077791186643 -599.4915597681197 441.8536987907253 -1353.89642931668 696.9952606279357 -1345.9851427521724C952.136822465146 -1338.0738561876647 1033.1893258251112 -824.2028262908508 1274.6986349451154 -209.9637382418623C1516.2079440651205 404.2753498071261 1991.4365323481807 1120.9304456532986 1856.2399444039543 1602.3624798829696 "></path><path d="M1251.05801995003 -193.47813777576062C1486.0400504451695 404.1598938394716 1948.4246228286884 1101.4459330411523 1816.8819967207928 1569.8662906700215C1685.3393706128968 2038.2866482988916 990.911355670989 2181.6883441225564 619.6534146321312 2054.939578842812C248.39547359327275 1928.1908135630674 380.59947902237354 1318.1149878541974 34.84387973427374 961.4722173272467C-310.91171955382583 604.829446800296 -1045.1055638793086 591.3664056352827 -1039.9734619507444 343.05428031344536C-1034.8413600221802 94.742154991608 -300.71822107004823 111.62621190670575 59.47796899138325 -230.42598421757157C419.67415905281473 -572.4781803418491 440.7224063944068 -1306.4937290917994 688.9682503441254 -1298.7962610830891C937.2140942938436 -1291.098793074379 1016.0759894548905 -791.1161693909926 1251.05801995003 -193.47813777576062C1486.0400504451695 404.1598938394716 1948.4246228286884 1101.4459330411523 1816.8819967207928 1569.8662906700215 "></path><path d="M1227.4175270252572 -176.9926593799712C1455.872278895532 404.0443158015041 1905.4128353795081 1081.9612983586944 1777.524171107943 1537.3699793867618C1649.6355068363778 1992.7786604148291 974.4971589761894 2132.1969757989477 613.5519385217442 2008.9690095547517C252.60671806729874 1885.741043310556 381.13839001225756 1292.6117683158213 44.98711292660528 945.8757414146189C-291.16416415904723 599.139714513417 -1004.9637350310444 586.0506467140985 -999.9741914893847 344.63608042897886C-994.9846479477251 103.22151414385917 -281.2538184109301 119.636569477982 68.93692192657272 -212.91417675395428C419.1276622640753 -545.4649229858906 439.59123606840126 -1259.0911509372313 680.9413621306276 -1251.6075014843184C922.2914881928536 -1244.1238520314057 998.9627751549824 -758.0296345614468 1227.4175270252572 -176.9926593799712C1455.872278895532 404.0443158015041 1905.4128353795081 1081.9612983586944 1777.524171107943 1537.3699793867618 "></path><path d="M1203.7770951356401 -160.5071809841818C1425.7045683810502 403.92873776353736 1862.4011089654846 1062.476663676236 1738.1664065302493 1504.8736681035016C1613.931704095015 1947.2706725307667 958.0830233165461 2082.7056074753395 607.4505234465134 1962.9984402666923C256.81802357648075 1843.2912730580447 381.67736203729805 1267.1085487774453 55.130407154092836 930.2792655019916C-271.4165477291124 593.4499822265379 -964.8218451476239 580.7348877929144 -959.9748599928688 346.2178805445126C-955.1278748381137 111.70087329611079 -261.7893547166559 127.64692704925847 78.39593589691844 -195.40236929033676C418.58122651049257 -518.451665629932 438.460126777552 -1211.688572782663 672.914534952286 -1204.4187418855477C907.3689431270195 -1197.1489109884326 981.849621890231 -724.9430997319009 1203.7770951356401 -160.5071809841818C1425.7045683810502 403.92873776353736 1862.4011089654846 1062.476663676236 1738.1664065302493 1504.8736681035016 "></path><path d="M1180.1365411757115 -144.02158051807987C1395.536735796256 403.81328179588263 1819.3892604811476 1042.9921510640902 1698.8085198822432 1472.377478890554C1578.2277792833393 1901.762806717018 941.6687655865908 2033.2143612220439 601.3489863009704 1917.027993048945C261.02920701535027 1800.8416248758458 382.21621199202605 1241.6054513093818 65.2735793112679 914.6829116596768C-251.66905336949014 587.7603720099719 -924.680077334516 575.4192509420432 -919.9756505666653 347.79980273035903C-915.2712237988148 120.18035451867445 -242.325013092694 135.65740669084767 87.85482779695167 -177.89043975640675C418.0346686865969 -491.43828620366094 437.32889541638997 -1164.2858725577823 664.8875857036319 -1157.2298602164647C892.4462759908733 -1150.1738478751467 964.7363465551662 -691.8564428320426 1180.1365411757115 -144.02158051807987C1395.536735796256 403.81328179588263 1819.3892604811476 1042.9921510640902 1698.8085198822432 1472.377478890554 "></path><path d="M1156.4960482509382 -127.53616315744694C1365.368964246618 403.6976427227594 1776.3774730319674 1023.5074553464756 1659.4506942693938 1439.8811065721375C1542.5239155068198 1856.254757797799 925.2545688917908 1983.7229318632794 595.2475101905834 1871.0573627257286C265.24045148937626 1758.3917935881777 382.75512298191006 1216.102170735849 75.41681250359943 899.0863747118929C-231.92149797471154 582.0705786879366 -884.5382484862517 570.1034309857027 -879.9763801053057 349.38154181073605C-875.4145117243597 128.6596526357696 -222.86061043357586 143.66770322696743 97.31378073214091 -160.3786933279457C417.4881718978579 -464.42508988285874 436.19772509038444 -1116.8833554383702 656.8606974901338 -1110.04116165285C877.5236698898834 -1103.1989678673299 947.6231322552585 -658.769969037653 1156.4960482509382 -127.53616315744694C1365.368964246618 403.6976427227594 1776.3774730319674 1023.5074553464756 1659.4506942693938 1439.8811065721375 "></path><path d="M1132.855555326165 -111.05074579681377C1335.20119269698 403.5820036496359 1733.3656855827876 1004.022759628861 1620.092868656544 1407.3847342537206C1506.8200517303007 1810.7467088785802 908.8403721969912 1934.2315025045145 589.1460340801966 1825.0867324025126C269.451695963402 1715.94196230051 383.2940339717943 1190.5988901623168 85.56004569593074 883.4898377641089C-212.17394257993294 576.3807853659014 -844.3964196379875 564.7876110293623 -839.977109643946 350.9632808911135C-835.5577996499046 137.1389507528645 -203.3962077744577 151.67799976308766 106.77273366733039 -142.86694689948445C416.9416751091185 -437.41189356205655 435.0665547643787 -1069.4808383189584 648.833809276636 -1062.8524630892357C862.6010637888935 -1056.224087859513 930.5099179553508 -625.6834952432635 1132.855555326165 -111.05074579681377C1335.20119269698 403.5820036496359 1733.3656855827876 1004.022759628861 1620.092868656544 1407.3847342537206 "></path><path d="M1109.2150013662363 -94.56508429555561C1305.0333601121856 403.46660871713766 1690.353837098451 984.5383080518718 1580.7349820085383 1374.8886060759296C1471.116126918625 1765.2389040999874 892.4261144670352 1884.740317286375 583.0444969346536 1779.116346219921C273.66287940227176 1673.492375153468 383.8328839265223 1165.0958537294096 95.7032178531058 867.8935449569503C-192.4264482203106 570.6912361844913 -804.2546518248796 559.4720352136471 -799.9779002177427 352.545264112116C-795.7011486106057 145.61849301058487 -183.93186615049592 159.68854043983265 116.23162556736361 -125.35495633039818C416.395117285223 -410.39845310062935 433.9353234032169 -1022.0780770589214 640.8068600279819 -1015.6635203849962C847.6783966527471 -1009.2489637110709 913.396642620286 -592.5967773082489 1109.2150013662363 -94.56508429555561C1305.0333601121856 403.46660871713766 1690.353837098451 984.5383080518718 1580.7349820085383 1374.8886060759296 "></path><path d="M1085.574508441463 -78.0796058997662C1274.8655885625476 403.35103067917066 1647.3420496492708 965.0536733694134 1541.3771563956884 1342.3922947926699C1435.412263142106 1719.7309162159254 876.0119177722358 1835.248948962767 576.9430208242666 1733.1457769318617C277.8741238762975 1631.0426049009566 384.3717949164063 1139.5926341910335 105.84645104543733 852.297069044323C-172.6788928255321 565.0015038976126 -764.1128229766153 554.1562762924632 -759.978629756383 354.1270642276495C-755.8444365361507 154.09785216283626 -164.46746349137788 167.69889801110935 125.69057850255308 -107.84314886678067C415.84862049648405 -383.3851957446708 432.80415307721114 -974.6754989043532 632.779971814484 -968.4747607862255C832.7557905517572 -962.2740226680978 896.2834283203783 -559.510242478703 1085.574508441463 -78.0796058997662C1274.8655885625476 403.35103067917066 1647.3420496492708 965.0536733694134 1541.3771563956884 1342.3922947926699 "></path><path d="M1061.9340155166901 -61.59406646882053C1244.6978170129096 403.2355136763597 1604.330262200091 945.5690997221118 1502.0193307828386 1309.8960445445655C1399.7083993655865 1674.2229893670192 859.5977210774361 1785.7576416743145 570.8415447138796 1687.1752686789582C282.0853683503233 1588.592895683601 384.91070590629056 1114.0894756878133 115.98968423776842 836.7006541668516C-152.9313374307535 559.3118326458898 -723.9709941283511 548.8405784064353 -719.9793592950234 355.7089253783395C-715.9877244616956 162.57727235024367 -145.00306083225973 175.70931661754207 135.14953143774255 -90.33128036800713C415.3021237077446 -356.3718773535561 431.6729827512054 -927.2728597146287 624.7530836009862 -921.2859401522985C817.833184450767 -915.2990205899683 879.1702140204704 -526.4236466140011 1061.9340155166901 -61.59406646882053C1244.6978170129096 403.2355136763597 1604.330262200091 945.5690997221118 1502.0193307828386 1309.8960445445655 "></path><path d="M1038.2935225919173 -45.10852703787509C1214.530045463272 403.1199966735487 1561.3184747509108 926.0845260748092 1462.6615051699891 1277.3997942964616C1364.004535589067 1628.7150625181134 843.1835243826365 1736.2663343858621 564.7400686034928 1641.2047604260538C286.29661282434927 1546.1431864662454 385.4496168961746 1088.586317184593 126.13291743009995 821.1042392893801C-133.1837820359748 553.6221613941668 -683.829165280087 543.5248805204074 -679.9800888336638 357.2907865290292C-676.1310123872406 171.05669253765132 -125.53865817314158 183.71973522397457 144.6084843729318 -72.81941186923359C414.7556269190054 -329.3585589624414 430.54181242519985 -879.8702205249042 616.7261953874886 -874.0971195183715C802.9105783497771 -868.3240185118389 862.0569997205623 -493.3370507492991 1038.2935225919173 -45.10852703787509C1214.530045463272 403.1199966735487 1561.3184747509108 926.0845260748092 1462.6615051699891 1277.3997942964616 "></path><path d="M1014.6530296671442 -28.622926571773405C1184.362273913634 403.0045407058942 1518.3066873017306 906.6000134626638 1423.3036795571393 1244.9036050835139C1328.300671812548 1583.207196704364 826.7693276878367 1686.775088132567 558.638592493106 1595.234313208307C290.50785729837503 1503.693538284047 385.9885278860588 1063.08321971653 136.27615062243126 805.5078854470653C-113.4362266411963 547.9325511776008 -643.6873364318227 538.2092436695359 -639.9808183723042 358.87270871487544C-636.2743003127855 179.5361737602152 -106.07425551402355 191.73021486556354 154.0674373081215 -55.307482335303575C414.20913013026643 -302.34517953617035 429.4106420991941 -832.4675203000236 608.6993071739907 -826.9082378492883C787.9879722487872 -821.3489553985532 844.9437854206544 -460.2503938494408 1014.6530296671442 -28.622926571773405C1184.362273913634 403.0045407058942 1518.3066873017306 906.6000134626638 1423.3036795571393 1244.9036050835139 "></path><path d="M991.0125367423711 -12.137692316608764C1154.194502363996 402.88871852730244 1475.2948998525503 887.1151346395809 1383.9458539442894 1212.4070496596287C1292.596808036029 1537.698964679677 810.3551309930372 1637.2834756683337 552.537116382719 1549.2634997796222C294.7191017724008 1461.243523890911 386.52743887594306 1037.579756037529 146.41938381476257 789.9111653938128C-93.6886712464177 542.242574750097 -603.5455075835584 532.893240607727 -599.9815479109444 360.45426468978417C-596.4175882383304 188.01528877184137 -86.60985285490551 199.740328296215 163.52639024331074 -37.79591901231106C413.662633341527 -275.3321663208369 428.27947177318833 -785.0651862860803 600.6724189604929 -779.7197223911426C773.065366147797 -774.3742584962049 827.8305711207465 -427.16410316051997 991.0125367423711 -12.137692316608764C1154.194502363996 402.88871852730244 1475.2948998525503 887.1151346395809 1383.9458539442894 1212.4070496596287 "></path><path d="M967.3721658879106 4.347969184649173C1124.0268528846707 402.77332359480397 1432.2832344736826 867.6306830625913 1344.5881504017525 1179.9109214818372C1256.893066329822 1492.1911599010837 793.9410563685503 1587.7922904501938 546.4357623426447 1503.2931135970307C298.9304683167393 1418.793936743868 387.0664719361396 1012.0767196046213 156.5627390774066 774.314872586654C-73.9409937813266 536.5530255686867 -563.4035566649818 527.5776647920113 -559.9821553792723 362.03624791078664C-556.5607540935628 196.4948310295615 -67.14532812547486 207.75086897296 172.98546524881272 -20.283928443224795C413.1162586231003 -248.3187258594097 427.1484235174953 -737.6624250260434 592.6456528173076 -732.5307796869032C758.1428821171196 -727.399134347763 810.7174788911511 -394.0773852255054 967.3721658879106 4.347969184649173C1124.0268528846707 402.77332359480397 1432.2832344736826 867.6306830625913 1344.5881504017525 1179.9109214818372 "></path><path d="M943.7316729631377 20.833447580438587C1093.8590813350324 402.65774555683674 1389.2714470245028 848.1460483801329 1305.2303247889026 1147.414610198577C1221.1892025533025 1446.6831720170212 777.5268596737506 1538.3009221265852 540.3342862322579 1457.322544308971C303.14171279076504 1376.3441664913562 387.6053829260238 986.5735000662451 166.7059722697379 758.7183966740263C-54.193438386547996 530.8632932818077 -523.2617278167176 522.2619058708271 -519.9828849179125 363.6180480263199C-516.7040420191076 204.9741901818129 -47.68092546635671 215.76122654423625 182.4444181840022 -2.7721209796075073C412.5697618343611 -221.30546850345127 426.01725319148954 -690.2598468714751 584.6187646038095 -685.3420200881325C743.2202760161297 -680.4241933047898 793.604264591243 -360.99085039595957 943.7316729631377 20.833447580438587C1093.8590813350324 402.65774555683674 1389.2714470245028 848.1460483801329 1305.2303247889026 1147.414610198577 "></path><path d="M920.0911190032084 37.31904804654039C1063.6912487502382 402.54228958918225 1346.2595985401663 828.6615357679873 1265.8724381408965 1114.9184209856298C1185.485277741627 1401.1753062032722 761.1126019437947 1488.8096758732895 534.2327490867146 1411.3520970912236C307.35289622963455 1333.8945183091573 388.1442328807516 961.0704025981815 176.84914442691297 743.1220428317115C-34.445944026925645 525.1736830652414 -483.1199600036096 516.9462690199557 -479.9836754917092 365.19997021216614C-476.84739097980884 213.4536714043768 -28.216583842394925 223.77170618582522 191.9033100840354 14.739808554322508C412.02320401046563 -194.2920890771802 424.88602183032754 -642.8571466465944 576.5918153551554 -638.1531384190494C728.2976088799833 -633.4491301915041 776.4909892561789 -327.90419349610124 920.0911190032084 37.31904804654039C1063.6912487502382 402.54228958918225 1346.2595985401663 828.6615357679873 1265.8724381408965 1114.9184209856298 "></path><path d="M896.4506260784353 53.8045264423298C1033.5234772006002 402.426711551215 1303.247811090986 809.1769010855289 1226.5146125280469 1082.4221097023694C1149.7814139651077 1355.6673183192102 744.698405248995 1439.3183075496813 528.1312729763276 1365.3815278031634C311.56414070366054 1291.444748056646 388.68314387063583 935.5671830598055 186.9923776192444 727.525566919084C-14.698388632147157 519.4839507783627 -442.97813115534535 511.63051009877177 -439.98440503034954 366.7817703277001C-436.9906789053538 221.93303055662818 -8.752181183276889 231.7820637571017 201.36226301922488 32.25161601794002C411.47670722172643 -167.27883172122176 423.754851504322 -595.4545684920263 568.5649271416578 -590.9643788202786C713.3750027789933 -586.474189148531 759.3777749562707 -294.8176586665554 896.4506260784353 53.8045264423298C1033.5234772006002 402.426711551215 1303.247811090986 809.1769010855289 1226.5146125280469 1082.4221097023694 "></path><path d="M872.8100721185065 70.28994380296285C1003.3556446158061 402.3110724780918 1260.2359626066498 789.6922053679145 1187.156725880041 1049.925737383953C1114.0774891534322 1310.159269399992 728.2841475190392 1389.8268781909164 522.0297358307848 1319.4108974799474C315.7753241425298 1248.9949167689783 389.2219938253638 910.0639024862728 197.13554977641945 711.9290299713002C5.0491057274753075 513.7941574563274 -402.8363633422374 506.31469014243135 -399.98519560414616 368.36350940807733C-397.1340278660549 230.4123286737231 10.712160440685011 239.79236029322192 210.821154919258 49.763362446401175C410.930149397831 -140.26563540041957 422.6236201431602 -548.0520513726142 560.5379778930037 -543.7756802566641C698.452335642847 -539.499309140714 742.2644996212064 -261.73118487216595 872.8100721185065 70.28994380296285C1003.3556446158061 402.3110724780918 1260.2359626066498 789.6922053679145 1187.156725880041 1049.925737383953 "></path><path d="M849.1695181585771 86.77542219875227C973.1878120310118 402.1954944401248 1217.2241141223135 770.2075706854562 1147.7988392320349 1017.429426100693C1078.3735643417567 1264.6512815159294 711.8698897890833 1340.3355098673082 515.9281986852416 1273.4403281918876C319.98650758139956 1206.545146516467 389.7608437800918 884.5606829478968 207.27872193359462 696.3325540586727C24.79660008709766 508.10442516944863 -362.69459552912946 500.9989312212474 -359.9859861779428 369.94530952361083C-357.2773768267561 238.8916878259747 30.17650206464691 247.8027178644984 220.28004681929121 67.27516991001869C410.3835915739355 -113.25237804446101 421.4923887819982 -500.64947321804607 552.5110286443496 -496.5869206578934C683.5296685067008 -492.52436809774076 725.1512242861422 -228.64465004262024 849.1695181585771 86.77542219875227C973.1878120310118 402.1954944401248 1217.2241141223135 770.2075706854562 1147.7988392320349 1017.429426100693 "></path><path d="M825.5290862689603 103.26090059454157C943.0201015165301 402.0799164021578 1174.2123877082895 750.722936002998 1108.4410746543417 984.9331148174326C1042.6697616003937 1219.1432936318677 695.4557541294398 1290.8441415437 509.8267836100108 1227.4697589038278C324.1978130905817 1164.0953762639556 390.2998158051321 859.0574634095206 217.42201616108218 680.7360781460452C44.544216517032396 502.41469288256985 -322.552705645709 495.68317230006323 -319.98665468142684 371.52710963914456C-317.42060371714473 247.37104697822588 49.6409657589212 255.81307543577486 229.73906078963694 84.78697737363609C409.83715582035256 -86.23912068850268 420.3612794911487 -453.24689506347784 544.484201466008 -449.3981610591227C668.6071234408671 -445.5494270547676 708.0380710213906 -195.55811521307442 825.5290862689603 103.26090059454157C943.0201015165301 402.0799164021578 1174.2123877082895 750.722936002998 1108.4410746543417 984.9331148174326 "></path><path d="M801.8886848969216 119.74631795517473C912.8524215196267 401.9642773290343 1131.2006918118439 731.2382402853837 1069.0833405942262 952.4367424990164C1006.9659893766091 1173.635244712649 679.0416489873746 1241.3527121849354 503.72539905235817 1181.4991285806118C328.40914911734194 1121.645544976288 390.8388183477506 833.5541828359883 227.56534090614798 665.1395411982614C64.29186346454537 496.7248995605346 -282.4107852447104 490.3673523437228 -279.98729266733284 373.10884871952203C-277.5638000899553 255.85034509532102 69.10545997077361 263.82337197189486 239.19810527756078 102.29872380209724C409.29075058434773 -59.22592436770037 419.23020071787755 -405.84437794406585 536.4574048052446 -402.20946249550826C653.6846088926113 -398.5745470469506 690.9249482742171 -162.47164141868484 801.8886848969216 119.74631795517473C912.8524215196267 401.9642773290343 1131.2006918118439 731.2382402853837 1069.0833405942262 952.4367424990164 "></path><path d="M778.2481004194144 136.2318879036984C882.6845584172543 401.84879084380145 1088.188812809929 711.7536971556597 1029.7254234286422 919.9405227684906C971.2620340473552 1128.1273483813213 662.6273607398407 1191.8614354140616 497.623831389237 1135.5286508452862C332.62030203863344 1079.1958662765107 391.37763778490034 808.0510548503464 237.70848254574503 649.5431568383683C84.03932730658948 491.0352588263902 -242.26904794918056 485.05168497527325 -239.98811375870753 374.6907403877899C-237.70717956823455 264.32979580030667 88.56977107715738 271.8338210959056 248.65696666001577 119.81062281844902C408.74416224287427 -32.21257545900744 418.09893883913753 -358.4417082367633 528.4304250390123 -355.02061134400316C638.761911238887 -351.59951445124307 673.8116424215746 -129.38501503640464 778.2481004194144 136.2318879036984C882.6845584172543 401.84879084380145 1088.188812809929 711.7536971556597 1029.7254234286422 919.9405227684906 "></path><path d="M754.6075769770634 152.7174578522222C852.5167563500381 401.73330435856883 1045.1769948431709 692.2691540259359 990.3675672982145 887.4443030379648C935.5581397532578 1082.6194520499937 646.213133527463 1142.3701586431876 491.5223247612721 1089.5581731099605C336.8315159950812 1036.746187576734 391.91651825720646 782.5479268647048 247.8516852204982 633.9467724784752C103.78685218378996 485.3456180922458 -202.1272496184945 479.7360176068237 -199.98887381492602 376.272632056058C-197.85049801135762 272.80924650529244 108.03414321869741 279.8442702199163 258.1158890776271 137.3225218348009C408.1976349365568 -5.199226550314734 416.96773799555376 -311.0390385294607 520.4035063079364 -307.8317601924981C623.839274620319 -304.62448185553546 656.6983976040883 -96.29838865412444 754.6075769770634 152.7174578522222C852.5167563500381 401.73330435856883 1045.1769948431709 692.2691540259359 990.3675672982145 887.4443030379648 "></path><path d="M730.9670230171341 169.20290573043349C822.3489237652439 401.6176958030236 1002.1651463588346 672.7844888258996 951.0096806502083 854.9479612371265C899.8542149415823 1037.1114336483533 629.7988757975072 1092.878759802001 485.42078761572884 1043.5875733043229C341.0426994339507 994.2963868066443 392.45536821193434 757.0446768087504 257.99485737767327 618.3502660482695C123.53434654341231 479.65585528778865 -161.98548180538648 474.4202281680614 -159.98966438872264 377.8544016540135C-157.99384697205875 281.2885751399656 127.4984848426592 287.8545972736148 267.57478097766034 154.8342987808402C407.65107711266137 21.8140002880657 415.83650663439175 -263.6364908924706 512.3765570592822 -260.6430311113055C608.9166074841726 -257.6495713301404 639.5851222690244 -63.211884342156736 730.9670230171341 169.20290573043349C822.3489237652439 401.6176958030236 1002.1651463588346 672.7844888258996 951.0096806502083 854.9479612371265 "></path><path d="M707.3265911275175 185.68850619653517C792.1812132507623 401.502239835369 959.1534199448106 653.2999762137538 911.651916072515 822.4517720241788C864.1504122002193 991.6035678346038 613.3847401378637 1043.3875135487053 479.3193725404983 997.6171260865754C345.2540049431328 951.8467386244454 392.9943402369747 731.5415793406869 268.13815160516094 602.7539122059545C143.28196297334716 473.96624507122215 -121.84359192196604 469.10459131718983 -119.99033289220671 379.4363238398596C-118.13707386244744 289.7680563625295 146.96294853693348 295.86507691520364 277.03379494800606 172.3462283147701C407.1046413590785 48.82737971433676 414.70539734354236 -216.23379066758991 504.3497298809407 -213.45414944222227C593.9940624183389 -210.6745082168547 622.4719690042725 -30.125227442298524 707.3265911275175 185.68850619653517C792.1812132507623 401.502239835369 959.1534199448106 653.2999762137538 911.651916072515 822.4517720241788 "></path><path d="M683.6860982027442 202.17395407474646C762.0134417011245 401.38663127982386 916.1416324956303 633.8153110137175 872.2940904596653 789.9554302233405C828.4465484237 946.0955494329637 596.9705434430642 993.8961147075188 473.2178964301114 951.6465262809372C349.4652494171587 909.3969378543559 393.53325122685885 706.0383292847325 278.28138479749236 587.1574057757489C163.02951836812576 468.27648226676524 -81.70176307370184 463.78880187842753 -79.99106243084708 381.0180934378152C-78.28036178799232 298.24738499720263 166.42735119605163 303.8754039689019 286.4927478831954 189.85800526080948C406.5581445703392 75.84060655271696 413.5742270175367 -168.8312430305998 496.32284166744284 -166.26542036102973C579.0714563173489 -163.69959769145964 605.3587547043646 2.9612768696691774 683.6860982027442 202.17395407474646C762.0134417011245 401.38663127982386 916.1416324956303 633.8153110137175 872.2940904596653 789.9554302233405 "></path><path d="M660.0454832076589 218.65943247053588C731.8455480811738 401.27105324185675 873.1297229761378 614.3306763312594 832.936142776503 757.4591189400805C792.7425625768683 900.5875615489017 580.5562246779521 944.4047463839104 467.116298249412 905.6759569928774C353.67637182087196 866.9471676018443 394.0720401464305 680.5351097463563 288.4244959195112 571.5609298631214C182.77695169259187 462.58674997988635 -41.56005629575009 458.4730429572435 -39.991914039799894 382.5998935533487C-38.42377178384976 306.726744149454 185.89163178485728 311.88576154017824 295.9515787480724 207.36981272442688C406.0115257112875 102.85386390867552 412.44293462121846 -121.42866487603158 488.2958313836324 -119.076660762259C564.1487281460463 -116.72465664848642 588.2454183341441 36.047811699215 660.0454832076589 218.65943247053588C731.8455480811738 401.27105324185675 873.1297229761378 614.3306763312594 832.936142776503 757.4591189400805 "></path><path d="M636.4050513180423 235.14503293663768C701.6778375666922 401.15559727420214 830.1179965621141 594.8461637191135 793.5783781988096 724.9629297271326C757.0387598355051 855.0796957351522 564.1420890183086 894.9135001306145 461.0148831741815 859.7055097751299C357.887677330054 824.4975194196454 394.611012171471 655.0320122782928 298.56779014699873 555.9645760208064C202.52456812252672 456.89713976331996 -1.41816641232964 453.1574061063719 0.007417456715984372 384.1818157391949C1.4330013257616088 315.2062253720178 205.35609547913157 319.8962411817672 305.410592718418 224.88174225835678C405.46508995770455 129.86724333494647 411.3118253303692 -74.0259646511509 480.2690042052909 -71.88777909317582C549.2261830802125 -69.74959353520075 571.1322650693922 69.13446859907327 636.4050513180423 235.14503293663768C701.6778375666922 401.15559727420214 830.1179965621141 594.8461637191135 793.5783781988096 724.9629297271326 "></path><path d="M612.7645889108474 251.63051133242698C671.5100965346322 401.04001923623514 787.1062396305119 575.3615290366553 754.220583103538 692.4666184438724C721.334926576564 809.5717078510902 547.7279228410871 845.4221318070063 454.9134375813726 813.7349404870702C362.0989523216581 782.047749167134 395.14995367893323 629.5287927399165 308.7110538569083 540.3681001081789C222.27215403488344 451.2074074764412 38.72369295351268 447.84164718518787 40.00671843565374 385.7636158547285C41.289743917794794 323.6855845242692 224.82052865582773 327.9065987530437 314.8695761711856 242.3935497219743C404.91862368654347 156.8805006909049 410.18068552194154 -26.62338649658267 472.2421465093712 -24.699019494405093C534.3036074968007 -22.774652492227517 554.0190812870625 102.22100342861904 612.7645889108474 251.63051133242698C671.5100965346322 401.04001923623514 787.1062396305119 575.3615290366553 754.220583103538 692.4666184438724 "></path><path d="M589.1240349509181 268.115898175482C641.3422639498381 400.92434964553354 744.0943911461754 555.8768028014626 714.862696455532 659.9702156078781C685.6310017648885 764.0636284142934 531.3136651111313 795.9306719306637 448.81190043582944 767.764279646276C366.3101357605276 739.5978873618883 395.6888036336611 604.025481648806 318.85422601408345 524.771532642817C242.01964839450568 445.5175836368279 78.86546076662069 442.52579671126944 80.00592786185717 387.34532441752776C81.14639495709366 332.1648521237862 244.28487027978963 335.91686477158555 324.3284680712188 259.9052656328573C404.372065862648 183.8936664941291 409.04945416077976 20.77910010525119 464.2151972607171 22.489648551631205C519.3809403606544 24.20019699801128 536.9058059519982 135.3074467054305 589.1240349509181 268.115898175482C641.3422639498381 400.92434964553354 744.0943911461754 555.8768028014626 714.862696455532 659.9702156078781 "></path><path d="M565.4835420261452 284.60149864158393C611.1744924002 400.80889367787904 701.0826036969954 536.392290189317 675.5048708426823 627.4740263949304C649.9271379883693 718.5557626005439 514.8994684163317 746.4394256773677 442.71042432544255 721.7938324285286C370.5213802345535 697.1482391796893 396.22771462354535 578.5223841807424 328.99745920641476 509.17517880050195C261.7672037892843 439.8279734202615 119.00728961488488 437.2101598603979 120.0051983232168 388.927246603374C121.00310703154872 340.64433334635 263.7492729389077 343.9273444131745 333.7874210064083 277.4171951667872C403.8255690739088 210.90704592040004 407.918283834774 68.18180033013186 456.18830904721926 69.67853022071444C504.4583342596644 71.175260111297 519.7925916520903 168.39410360528882 565.4835420261452 284.60149864158393C611.1744924002 400.80889367787904 701.0826036969954 536.392290189317 675.5048708426823 627.4740263949304 "></path><path d="M541.843018583794 301.08697703737323C581.0066903329841 400.69331563991193 658.070785730237 516.9076555068588 636.1470147122545 594.9777151116702C614.2232436942719 673.0477747164819 498.48524120395405 696.9480573537594 436.60891769747764 675.8232631404686C374.7325941910012 654.6984689271779 396.76659509585124 553.0191646423663 339.14066188116806 493.57870288787444C281.51472866648476 434.1382411333826 159.14908794557095 431.8944009392137 160.00443826699836 390.5090467189076C160.85978858842572 349.12369249860126 283.2136450804477 351.937701984451 343.24634342401964 294.92900263040474C403.2790417675915 237.92030327635848 406.78708299119023 115.5843784847001 448.1613903161433 116.86728981948517C489.53569764109625 118.15020115427018 502.6793468346042 201.4806384348346 541.843018583794 301.08697703737323C581.0066903329841 400.69331563991193 658.070785730237 516.9076555068588 636.1470147122545 594.9777151116702 "></path><path d="M518.202495141443 317.57247069195165C550.838888265768 400.5777528607339 615.0589677634789 497.4230360831896 596.7891585818267 562.4814190871991C578.5193494001744 627.5398020912089 482.07101399157614 647.45670428894 430.5074110695126 629.8527091111978C378.94380814744886 612.2487139334555 397.30547556815736 527.5159603627792 349.28386455592124 477.982242234036C301.26225354368523 428.4485241052928 199.29088627625703 426.57865727681883 200.00367821077987 392.09086209323027C200.71647014530265 357.6030669096417 302.67801722198766 359.9480748145164 352.7052658416309 312.4408253528112C402.73251446127415 264.93357589110605 405.65588214760646 162.9869718980574 440.13447158506733 164.0560646770449C474.6130610225282 165.12515745603247 485.56610201711806 234.56718852316942 518.202495141443 317.57247069195165C550.838888265768 400.5777528607339 615.0589677634789 497.4230360831896 596.7891585818267 562.4814190871991 "></path><path d="M494.56200221666995 334.0579948641082C520.67111671613 400.46222059913396 572.0471803142987 477.9384471770985 557.4313329689769 529.9851535803062C542.8154856236551 582.0318599835139 465.6568172967766 597.965381741699 424.4059349591257 583.8821855995052C383.15505262147474 569.7989894573113 397.8443865580415 502.01278660077014 359.42709774825266 462.38581209777567C321.0098089384638 422.7588375947812 239.43271512452128 421.26294413200185 240.0029486721395 393.67270798513107C240.57318221975777 366.0824718382603 322.14241988110575 367.95847816215996 362.16421877682035 329.95267859279585C402.18601767253494 291.94687902343173 404.5247118216008 210.38959582899275 432.1075833715695 211.24487005218282C459.69045492153816 212.10014427537283 468.45288771721005 267.65376912908243 494.56200221666995 334.0579948641082C520.67111671613 400.46222059913396 572.0471803142987 477.9384471770985 557.4313329689769 529.9851535803062 "></path><path d="M470.92149403310793 350.5435037774757C490.503329907703 400.346673078745 529.0353776063295 458.4538430122184 518.0734920973382 497.4888728146242C507.11160658834683 536.52390261703 449.24260534318796 548.4740439356688 418.30444358994976 537.9116468290233C387.36628183671155 527.3492497223781 398.38328228913656 476.50959757997225 369.57031568179497 446.7893667027263C340.7573490744533 417.0691358254804 279.5745287139964 415.9472157283959 280.0022038747101 395.25453861824286C280.42987903542377 374.5618615080897 341.6068072814348 375.96886625101456 371.62315645322076 347.46451657399143C401.6395056250067 318.9601668969683 403.39352623680605 257.7922045011391 424.0806798992826 258.4336601685316C444.76783356175906 259.0751158359242 451.33965815851303 300.7403344762064 470.92149403310793 350.5435037774757C490.503329907703 400.346673078745 529.0353776063295 458.4538430122184 518.0734920973382 497.4888728146242 "></path><path d="M447.28101636712404 367.02898217326504C460.33557361685405 400.2310950407779 486.0236054159384 438.9692083297602 478.7156817432775 464.99256153136406C471.40775807061664 491.0159147329679 432.82842390717735 498.98267561206046 412.2029827383519 491.94107754096353C391.57754156952643 484.8994794698666 398.9222085378098 451.006378041596 379.7135641329154 431.1928907900988C360.504919728021 411.37940353860154 319.7163728210497 410.63145680721186 320.0014895948588 396.8363387337765C320.28660636866795 383.0412206603411 361.07122519934194 383.9792238222909 381.08212464719924 364.9763240376089C401.09302409505653 345.9734242529268 402.26237116958947 305.19478265570734 416.0538069445738 305.62241976730235C429.84524271955814 306.05005687889735 434.2264591173941 333.82686930575215 447.28101636712404 367.02898217326504C460.33557361685405 400.2310950407779 486.0236054159384 438.9692083297602 478.7156817432775 464.99256153136406 "></path><path d="M423.640508183562 383.5144910866325C430.167786808427 400.115547520389 443.0118027079692 419.4846041648801 439.35784087163876 432.49628076568206C435.7038790353083 445.50795736648394 416.4142119535887 449.49133780603023 406.10149136917596 445.97053877048177C395.78877078476324 442.4497397349333 399.46110426890493 425.503189020798 389.8567820664577 415.5964453950494C380.25245986401046 405.68970176930077 359.85818641052487 405.31572840360593 360.00074479742943 398.41816936688826C360.14330318433394 391.52061033017054 380.53561259967097 391.98961191114546 390.54106232359965 382.4881620188044C400.54651204752827 372.9867121264634 401.1311855847947 352.59739132785364 408.0269034722869 352.81120988365114C414.9226213597791 353.0250284394487 417.11322955869707 366.91343465287605 423.640508183562 383.5144910866325C430.167786808427 400.115547520389 443.0118027079692 419.4846041648801 439.35784087163876 432.49628076568206 "></path></g></svg>